# xmcd
#
# Track frame offsets:
#	150
#	20975
#	37795
#	51125
#	67865
#	78690
#	94545
#	114045
#	128330
#	149340
#	167085
#	185235
#
# Disc length: 2645 seconds
# Revision: 0
# Processed by: cddbd v1.5.2PL0 Copyright (c) Steve Scherf et al.
# Submitted via: dBpowerAMP V12.0
#
DISCID=970a530c
DTITLE=Anneli Saaristo - Kypsän Naisen Blues
DYEAR=1995
DGENRE=Ballad
TTITLE0=Muistatko
TTITLE1=Elämästä Nautin
TTITLE2=Ikävä
TTITLE3=Muistojen Kahleet
TTITLE4=Intohimoilleni
TTITLE5=Valkeat Linnut
TTITLE6=Hernando
TTITLE7=Alla Jalkojen Maa
TTITLE8=Kypsän Naisen Blues
TTITLE9=Voimistuu Hiljainen Laulu
TTITLE10=Öisin
TTITLE11=Aamun Ensi Valonsäde
EXTD=
EXTT0=
EXTT1=
EXTT2=
EXTT3=
EXTT4=
EXTT5=
EXTT6=
EXTT7=
EXTT8=
EXTT9=
EXTT10=
EXTT11=
PLAYORDER=
